<?xml version="1.0" encoding="UTF-8"?>
<svg id="Layer_1" data-name="Layer 1" xmlns="http://www.w3.org/2000/svg" xmlns:xlink="http://www.w3.org/1999/xlink" viewBox="0 0 740.57 382.54">
  <defs>
    <style>
      .cls-1 {
        fill: #fff;
        filter: url(#drop-shadow-1);
        stroke: #c10230;
        stroke-miterlimit: 10;
        stroke-width: 20.57px;
      }

      .cls-2 {
        fill: #f58621;
        stroke-width: 0px;
      }
    </style>
    <filter id="drop-shadow-1" filterUnits="userSpaceOnUse">
      <feOffset dx="0" dy="6.85"/>
      <feGaussianBlur result="blur" stdDeviation="4.89"/>
      <feFlood flood-color="#010101" flood-opacity=".2"/>
      <feComposite in2="blur" operator="in"/>
      <feComposite in="SourceGraphic"/>
    </filter>
  </defs>
  <path class="cls-1" d="M670.8,10.28H69.76c-32.85,0-59.48,26.63-59.48,59.48v243.01c0,32.85,26.63,59.48,59.48,59.48h601.04c32.85,0,59.48-26.63,59.48-59.48V69.76c0-32.85-26.63-59.48-59.48-59.48h0Z"/>
  <g>
    <g>
      <path class="cls-2" d="M478.13,168.5c-3.35,0-6.34-2.35-7.03-5.76l-8.82-43.72c-.54-2.67.48-5.42,2.64-7.1l32.66-25.35,8.83,11.35-29.18,22.62,7.94,39.35c.78,3.89-1.73,7.68-5.62,8.46-.48.1-.96.14-1.43.14Z"/>
      <path class="cls-2" d="M597.05,155.27c-2.17,0-4.31-.98-5.73-2.84l-22.57-29.74-31.95-24.77,8.83-11.35,32.66,25.35c.5.39.94.83,1.32,1.33l23.15,30.49c2.4,3.16,1.78,7.66-1.38,10.06-1.3.99-2.82,1.46-4.34,1.46Z"/>
      <path class="cls-2" d="M508.59,268.45c-6.1,0-11.05-4.95-11.05-11.05v-96.25h22.1v96.25c0,6.1-4.95,11.05-11.05,11.05Z"/>
      <path class="cls-2" d="M565.08,263.33c-5.85,1.72-12-1.62-13.72-7.48l-31.22-105.72,21.2-6.24,31.22,105.72c1.72,5.85-1.62,12-7.48,13.72Z"/>
      <g>
        <circle class="cls-2" cx="521.61" cy="63.42" r="22.04"/>
        <polygon class="cls-2" points="497.54 167.39 545.67 167.39 545.64 86.57 497.58 86.57 497.54 167.39"/>
      </g>
    </g>
    <g>
      <path class="cls-2" d="M330.41,156c-2.12,0-4.23-.94-5.64-2.74l-24.61-31.23c-1.19-1.5-1.72-3.42-1.49-5.32.23-1.9,1.21-3.63,2.73-4.8l32.85-25.35,8.64,11.35-26.98,20.91,20.13,25.54c2.46,3.11,1.92,7.63-1.19,10.09-1.32,1.04-2.88,1.54-4.44,1.54Z"/>
      <path class="cls-2" d="M386.27,156c2.12,0,4.23-.94,5.64-2.74l24.61-31.23c1.19-1.5,1.72-3.42,1.49-5.32-.23-1.9-1.21-3.63-2.73-4.8l-32.73-25.35-8.77,11.35,26.98,20.91-20.13,25.54c-2.46,3.11-1.92,7.63,1.19,10.09,1.32,1.04,2.88,1.54,4.44,1.54Z"/>
      <g>
        <circle class="cls-2" cx="358.47" cy="63.42" r="22.04"/>
        <polygon class="cls-2" points="334.41 167.39 382.53 167.39 382.56 86.57 334.25 86.57 334.41 167.39"/>
      </g>
      <path class="cls-2" d="M371.49,268.45c6.1,0,11.05-4.95,11.05-11.05v-96.25s-22.1,0-22.1,0v96.25c0,6.1,4.95,11.05,11.05,11.05Z"/>
      <path class="cls-2" d="M345.45,268.45c6.1,0,11.05-4.95,11.05-11.05v-96.25s-22.1,0-22.1,0v96.25c0,6.1,4.95,11.05,11.05,11.05Z"/>
    </g>
    <g>
      <path class="cls-2" d="M242.34,168.5c3.35,0,6.34-2.35,7.03-5.76l8.82-43.72c.54-2.67-.48-5.42-2.64-7.1l-32.65-25.35-8.85,11.35,29.18,22.62-7.94,39.35c-.78,3.89,1.73,7.68,5.62,8.46.48.1.96.14,1.43.14Z"/>
      <path class="cls-2" d="M125.55,153.71c-.28-2.15.41-4.4,2.08-6.04l26.58-26.22,20.53-34.88,12.3,7.26-20.92,35.7c-.32.54-.71,1.04-1.15,1.48l-27.25,26.89c-2.82,2.78-7.37,2.75-10.15-.07-1.14-1.16-1.81-2.61-2.01-4.11Z"/>
      <path class="cls-2" d="M211.91,268.45c6.1,0,11.05-4.95,11.05-11.05v-96.25s-22.1,0-22.1,0v96.25c0,6.1,4.95,11.05,11.05,11.05Z"/>
      <g>
        <circle class="cls-2" cx="198.89" cy="63.42" r="22.04"/>
        <polygon class="cls-2" points="174.83 167.39 222.95 167.39 222.9 86.57 174.73 86.57 174.83 167.39"/>
      </g>
      <path class="cls-2" d="M136.49,255.36c5.44,2.75,12.09.57,14.84-4.88l49.81-98.34-19.72-9.97-49.81,98.34c-2.75,5.45-.57,12.09,4.88,14.84Z"/>
    </g>
    <polygon class="cls-2" points="491.89 305.05 450.48 263.65 450.48 291.61 266.2 291.61 266.2 263.65 224.8 305.05 266.2 346.46 266.2 318.5 450.48 318.5 450.48 346.46 491.89 305.05"/>
  </g>
</svg>