<?xml version="1.0" encoding="UTF-8"?>
<svg id="Layer_1" data-name="Layer 1" xmlns="http://www.w3.org/2000/svg" xmlns:xlink="http://www.w3.org/1999/xlink" viewBox="0 0 740.57 382.54">
  <defs>
    <style>
      .cls-1 {
        fill: #fff;
        filter: url(#drop-shadow-1);
        stroke: #c10230;
        stroke-miterlimit: 10;
        stroke-width: 20.57px;
      }

      .cls-2 {
        fill: #f58621;
        stroke-width: 0px;
      }
    </style>
    <filter id="drop-shadow-1" filterUnits="userSpaceOnUse">
      <feOffset dx="0" dy="6.85"/>
      <feGaussianBlur result="blur" stdDeviation="4.89"/>
      <feFlood flood-color="#010101" flood-opacity=".2"/>
      <feComposite in2="blur" operator="in"/>
      <feComposite in="SourceGraphic"/>
    </filter>
  </defs>
  <path class="cls-1" d="M670.8,10.28H69.76c-32.85,0-59.48,26.63-59.48,59.48v243.01c0,32.85,26.63,59.48,59.48,59.48h601.04c32.85,0,59.48-26.63,59.48-59.48V69.76c0-32.85-26.63-59.48-59.48-59.48h0Z"/>
  <g>
    <path class="cls-2" d="M478.13,168.5c-3.35,0-6.34-2.35-7.03-5.76l-8.82-43.72c-.54-2.67.48-5.42,2.64-7.1l32.66-25.35,8.83,11.35-29.18,22.62,7.94,39.35c.78,3.89-1.73,7.68-5.62,8.46-.48.1-.96.14-1.43.14Z"/>
    <path class="cls-2" d="M597.05,155.27c-2.17,0-4.31-.98-5.73-2.84l-22.57-29.74-31.95-24.77,8.83-11.35,32.66,25.35c.5.39.94.83,1.32,1.33l23.15,30.49c2.4,3.16,1.78,7.66-1.38,10.06-1.3.99-2.82,1.46-4.34,1.46Z"/>
    <path class="cls-2" d="M508.59,268.45c-6.1,0-11.05-4.95-11.05-11.05v-96.25h22.1v96.25c0,6.1-4.95,11.05-11.05,11.05Z"/>
    <path class="cls-2" d="M565.08,263.33c-5.85,1.72-12-1.62-13.72-7.48l-31.22-105.72,21.2-6.24,31.22,105.72c1.72,5.85-1.62,12-7.48,13.72Z"/>
    <g>
      <circle class="cls-2" cx="521.61" cy="63.42" r="22.04"/>
      <polygon class="cls-2" points="497.54 167.39 545.67 167.39 545.64 86.57 497.58 86.57 497.54 167.39"/>
    </g>
  </g>
  <polygon class="cls-2" points="448.77 318.5 448.77 346.46 490.18 305.05 448.77 263.65 448.77 291.61 358.15 291.61 358.15 318.5 448.77 318.5"/>
</svg>