<?xml version="1.0" encoding="UTF-8"?>
<svg id="Layer_1" data-name="Layer 1" xmlns="http://www.w3.org/2000/svg" xmlns:xlink="http://www.w3.org/1999/xlink" version="1.1" viewBox="0 0 1080 542.96">
  <defs>
    <style>
      .cls-1 {
        fill: #761b58;
      }

      .cls-1, .cls-2, .cls-3, .cls-4 {
        stroke-width: 0px;
      }

      .cls-2 {
        fill: #c10230;
        filter: url(#drop-shadow-1);
      }

      .cls-3 {
        fill: #f48022;
      }

      .cls-4 {
        fill: #fff;
      }
    </style>
    <filter id="drop-shadow-1" filterUnits="userSpaceOnUse">
      <feOffset dx="0" dy="10.27"/>
      <feGaussianBlur result="blur" stdDeviation="7.34"/>
      <feFlood flood-color="#010101" flood-opacity=".2"/>
      <feComposite in2="blur" operator="in"/>
      <feComposite in="SourceGraphic"/>
    </filter>
  </defs>
  <rect class="cls-1" x="14.67" y="14.67" width="1050.65" height="513.61" rx="74.55" ry="74.55"/>
  <g>
    <path class="cls-4" d="M133.71,149.15l29.75-39.67v61.02h-12.23v-24.42l-17.53,23.43-17.53-23.43v24.42h-12.23v-61.02l29.75,39.67Z"/>
    <path class="cls-4" d="M186.18,161.79l-3.94,8.71h-13.02l26.12-58.18,1.29-2.84,1.32,2.88,26.16,58.15h-13.06l-3.9-8.74-.19-.42h-20.59l-.19.45ZM201.44,149.15l-4.77-10.68-4.81,10.68h9.58Z"/>
    <path class="cls-4" d="M262.53,111.88c3.7,1.6,6.95,3.78,9.75,6.53l-8.63,8.63c-3.63-3.58-7.95-5.38-12.95-5.38s-9.36,1.8-12.93,5.39c-3.57,3.6-5.36,7.91-5.36,12.93s1.79,9.36,5.36,12.93c3.57,3.57,7.88,5.36,12.93,5.36s9.36-1.79,12.95-5.38l8.63,8.63c-2.8,2.78-6.05,4.97-9.75,6.57-3.7,1.6-7.64,2.4-11.83,2.4-8.4,0-15.59-2.98-21.56-8.95-5.97-5.97-8.95-13.15-8.95-21.56s2.98-15.56,8.95-21.54c5.97-5.98,13.15-8.97,21.56-8.97,4.19,0,8.13.8,11.83,2.4Z"/>
    <path class="cls-4" d="M288.86,109.48v24.42h18.28v-24.42h12.23v61.02h-12.23v-24.42h-18.28v24.42h-12.23v-61.02h12.23Z"/>
    <path class="cls-4" d="M325.37,109.48h12.23v61.02h-12.23v-61.02Z"/>
    <path class="cls-4" d="M380.21,142.83v-33.35h12.23v61.02l-36.61-33.39v33.39h-12.23v-61.02l36.61,33.35Z"/>
    <path class="cls-4" d="M435.7,109.48v12.19h-24.38v12.23h18.28v12.19h-18.28v12.19h24.38v12.23h-36.61v-61.02h36.61Z"/>
    <path class="cls-4" d="M472.35,109.48v48.8h24.38v12.23h-36.61v-61.02h12.23Z"/>
    <path class="cls-4" d="M538.83,109.48v12.19h-24.38v12.23h18.28v12.19h-18.28v12.19h24.38v12.23h-36.61v-61.02h36.61Z"/>
    <path class="cls-4" d="M559.47,161.79l-3.94,8.71h-13.02l26.12-58.18,1.29-2.84,1.32,2.88,26.16,58.15h-13.06l-3.9-8.74-.19-.42h-20.59l-.19.45ZM574.72,149.15l-4.77-10.68-4.81,10.68h9.58Z"/>
    <path class="cls-4" d="M600.76,152.18v-42.7h21.35c5.88,0,10.91,2.09,15.1,6.28,4.19,4.19,6.28,9.21,6.28,15.07,0,4.54-1.29,8.63-3.88,12.25-2.59,3.62-5.89,6.19-9.9,7.7l13.78,19.72h-14.92l-15.6-22.33v22.33h-12.23v-18.32ZM622.11,139.99c2.52,0,4.68-.9,6.47-2.69,1.79-1.79,2.69-3.95,2.69-6.47s-.9-4.65-2.69-6.45c-1.79-1.8-3.95-2.71-6.47-2.71h-9.12v18.32h9.12Z"/>
    <path class="cls-4" d="M685.67,142.83v-33.35h12.23v61.02l-36.61-33.39v33.39h-12.23v-61.02l36.61,33.35Z"/>
    <path class="cls-4" d="M704.45,109.48h12.23v61.02h-12.23v-61.02Z"/>
    <path class="cls-4" d="M759.83,142.83v-33.35h12.23v61.02l-36.61-33.39v33.39h-12.23v-61.02l36.61,33.35Z"/>
    <path class="cls-4" d="M820.01,111.88c3.7,1.6,6.95,3.78,9.75,6.53l-8.63,8.63c-3.63-3.58-7.95-5.38-12.95-5.38s-9.36,1.8-12.93,5.39c-3.57,3.6-5.36,7.91-5.36,12.93s1.79,9.36,5.36,12.93c3.57,3.57,7.88,5.36,12.93,5.36,3.96,0,7.51-1.14,10.64-3.43,3.13-2.28,5.34-5.21,6.62-8.76h-17.26v-12.19h29.9c.4,1.92.61,3.95.61,6.09,0,8.4-2.99,15.59-8.97,21.56-5.98,5.97-13.16,8.95-21.54,8.95s-15.59-2.98-21.56-8.95c-5.97-5.97-8.95-13.15-8.95-21.56s2.98-15.56,8.95-21.54c5.97-5.98,13.15-8.97,21.56-8.97,4.19,0,8.13.8,11.83,2.4Z"/>
    <path class="cls-4" d="M878.33,161.79l-3.94,8.71h-13.02l26.12-58.18,1.29-2.84,1.32,2.88,26.16,58.15h-13.06l-3.9-8.74-.19-.42h-20.59l-.19.45ZM893.58,149.15l-4.77-10.68-4.81,10.68h9.58Z"/>
    <path class="cls-4" d="M933.03,157.67v12.83h-12.83v-12.83h12.83Z"/>
    <path class="cls-4" d="M940.68,109.48h12.23v61.02h-12.23v-61.02Z"/>
    <path class="cls-4" d="M973.69,157.67v12.83h-12.83v-12.83h12.83Z"/>
  </g>
  <path class="cls-2" d="M990.78,29.35c33.01,0,59.87,26.86,59.87,59.87v364.52c0,33.01-26.86,59.87-59.87,59.87H89.22c-33.01,0-59.87-26.86-59.87-59.87V89.22c0-33.01,26.86-59.87,59.87-59.87h901.56M990.78,0H89.22C39.95,0,0,39.95,0,89.22v364.52c0,49.28,39.95,89.22,89.22,89.22h901.56c49.28,0,89.22-39.95,89.22-89.22V89.22c0-49.28-39.95-89.22-89.22-89.22h0Z"/>
  <g>
    <g>
      <rect class="cls-4" x="260.02" y="255.45" width="14.77" height="14.77"/>
      <rect class="cls-4" x="360.68" y="268.03" width="14.77" height="14.77"/>
      <rect class="cls-4" x="409.53" y="268.03" width="14.77" height="14.77"/>
      <rect class="cls-4" x="499.16" y="268.03" width="14.77" height="14.77"/>
      <rect class="cls-4" x="587.22" y="268.03" width="14.77" height="14.77"/>
      <rect class="cls-4" x="675.27" y="268.03" width="14.77" height="14.77"/>
      <rect class="cls-4" x="763.03" y="268.03" width="14.77" height="14.77"/>
      <g>
        <path class="cls-3" d="M341.81,255.45v44.04h-6.29v6.29h-6.29v6.29h-6.29v6.29h-6.29v6.29h-6.29v6.29h-6.29v6.29h-37.75v-6.29h-6.29v-6.29h-6.29v-69.21h6.29v12.58h6.29v-6.29h6.29v-6.29h-12.58v-6.29h31.46v6.29h6.29v44.04h6.29v-6.29h6.29v-37.75h6.29v-6.29h18.88v6.29h6.29Z"/>
        <path class="cls-3" d="M385.85,268.03h6.29v62.92h-6.29v6.29h-25.17v-6.29h-6.29v-62.92h6.29v12.58h6.29v-6.29h6.29v-6.29h-12.58v-6.29h25.17v6.29Z"/>
        <path class="cls-3" d="M473.94,274.33h6.29v18.88h-6.29v6.29h-6.29v6.29h6.29v6.29h6.29v18.88h-6.29v6.29h-6.29v-6.29h-6.29v-6.29h-6.29v-6.29h-6.29v-6.29h-6.29v18.88h-6.29v6.29h-25.17v-6.29h-6.29v-62.92h6.29v12.58h6.29v-6.29h6.29v-6.29h-12.58v-6.29h56.63v6.29h6.29v6.29ZM461.35,286.91v-6.29h-18.88v6.29h18.88Z"/>
        <path class="cls-3" d="M499.1,280.62h-6.29v-12.58h6.29v12.58ZM562.02,268.03h6.29v12.58h-6.29v6.29h-12.58v44.04h-6.29v6.29h-25.17v-6.29h-6.29v-44.04h-12.58v-6.29h6.29v-6.29h6.29v-6.29h-12.58v-6.29h62.92v6.29Z"/>
        <path class="cls-3" d="M650.11,268.03h6.29v56.63h-6.29v6.29h-6.29v6.29h-50.33v-6.29h-6.29v-6.29h-6.29v-56.63h6.29v12.58h6.29v-6.29h6.29v-6.29h-12.58v-6.29h25.17v6.29h6.29v44.04h12.58v-44.04h6.29v-6.29h12.58v6.29Z"/>
        <path class="cls-3" d="M738.19,274.33h6.29v56.63h-6.29v6.29h-6.29v-6.29h-6.29v-25.17h-18.88v25.17h-6.29v6.29h-25.17v-6.29h-6.29v-56.63h6.29v6.29h6.29v-6.29h6.29v-6.29h-6.29v-6.29h50.33v6.29h6.29v6.29ZM725.61,280.62h-18.88v6.29h18.88v-6.29Z"/>
        <path class="cls-3" d="M819.99,318.37h6.29v12.58h-6.29v6.29h-56.63v-6.29h-6.29v-62.92h6.29v12.58h6.29v-6.29h6.29v-6.29h-12.58v-6.29h25.17v6.29h6.29v44.04h25.17v6.29Z"/>
      </g>
    </g>
    <g>
      <g>
        <rect class="cls-4" x="642.42" y="392.14" width="14.77" height="14.77"/>
        <rect class="cls-4" x="729.55" y="392.14" width="14.77" height="14.77"/>
        <rect class="cls-4" x="818.47" y="392.14" width="14.77" height="14.77"/>
        <rect class="cls-4" x="905.6" y="392.14" width="14.77" height="14.77"/>
        <rect class="cls-4" x="957.57" y="392.14" width="14.77" height="14.77"/>
        <rect class="cls-4" x="542.32" y="377.87" width="14.77" height="14.77"/>
        <path class="cls-3" d="M542.31,392.14h-6.29v-12.58h6.29v12.58ZM617.81,379.56h6.29v12.58h-6.29v6.29h-18.88v56.63h-6.29v6.29h-25.17v-6.29h-6.29v-56.63h-18.88v-6.29h6.29v-6.29h6.29v-6.29h-12.58v-6.29h75.5v6.29Z"/>
        <path class="cls-3" d="M705.9,392.14h6.29v6.29h-6.29v6.29h-31.46v6.29h31.46v6.29h6.29v6.29h-6.29v6.29h-31.46v6.29h31.46v6.29h6.29v12.58h-6.29v6.29h-62.92v-6.29h-6.29v-62.92h6.29v12.58h6.29v-6.29h6.29v-6.29h-12.58v-6.29h62.92v6.29Z"/>
        <path class="cls-3" d="M793.98,392.14h6.29v62.92h-6.29v6.29h-12.58v-6.29h-6.29v-25.17h-6.29v-6.29h-6.29v31.46h-6.29v6.29h-25.17v-6.29h-6.29v-62.92h6.29v12.58h6.29v-6.29h6.29v-6.29h-12.58v-6.29h25.17v6.29h6.29v12.58h6.29v6.29h6.29v-18.88h6.29v-6.29h12.58v6.29Z"/>
        <path class="cls-3" d="M882.07,392.14h6.29v62.92h-6.29v6.29h-12.58v-6.29h-6.29v-25.17h-6.29v-6.29h-6.29v31.46h-6.29v6.29h-25.17v-6.29h-6.29v-62.92h6.29v12.58h6.29v-6.29h6.29v-6.29h-12.58v-6.29h25.17v6.29h6.29v12.58h6.29v6.29h6.29v-18.88h6.29v-6.29h12.58v6.29Z"/>
        <path class="cls-3" d="M932.4,392.14h6.29v62.92h-6.29v6.29h-25.17v-6.29h-6.29v-62.92h6.29v12.58h6.29v-6.29h6.29v-6.29h-12.58v-6.29h25.17v6.29Z"/>
        <path class="cls-3" d="M1020.49,392.14h6.29v6.29h-6.29v6.29h-31.46v6.29h31.46v6.29h6.29v31.46h-6.29v6.29h-6.29v6.29h-56.63v-6.29h-6.29v-18.88h6.29v-6.29h44.04v-6.29h-44.04v-6.29h-6.29v-18.88h6.29v6.29h6.29v-6.29h6.29v-6.29h-6.29v-6.29h56.63v6.29Z"/>
      </g>
      <g>
        <rect class="cls-4" x="59.51" y="379.53" width="14.77" height="14.77"/>
        <rect class="cls-4" x="160.17" y="392.14" width="14.77" height="14.77"/>
        <rect class="cls-4" x="248.24" y="392.14" width="14.77" height="14.77"/>
        <rect class="cls-4" x="334.32" y="392.14" width="14.77" height="14.77"/>
        <rect class="cls-4" x="416.8" y="392.14" width="14.77" height="14.77"/>
        <path class="cls-3" d="M59.51,392.14h-6.29v-12.58h6.29v12.58ZM135.01,379.56h6.29v12.58h-6.29v6.29h-18.88v56.63h-6.29v6.29h-25.17v-6.29h-6.29v-56.63h-18.88v-6.29h6.29v-6.29h6.29v-6.29h-12.58v-6.29h75.5v6.29Z"/>
        <path class="cls-3" d="M223.1,398.43h6.29v56.63h-6.29v6.29h-6.29v-6.29h-6.29v-25.17h-18.88v25.17h-6.29v6.29h-25.17v-6.29h-6.29v-56.63h6.29v6.29h6.29v-6.29h6.29v-6.29h-6.29v-6.29h50.34v6.29h6.29v6.29ZM210.52,404.72h-18.88v6.29h18.88v-6.29Z"/>
        <path class="cls-3" d="M311.19,398.43h6.29v18.88h-6.29v6.29h6.29v25.17h-6.29v6.29h-6.29v6.29h-56.63v-6.29h-6.29v-62.92h6.29v12.58h6.29v-6.29h6.29v-6.29h-12.58v-6.29h56.63v6.29h6.29v6.29ZM298.6,411.02v-6.29h-18.88v6.29h18.88ZM298.6,429.89h-18.88v6.29h18.88v-6.29Z"/>
        <path class="cls-3" d="M392.98,442.48h6.29v12.58h-6.29v6.29h-56.63v-6.29h-6.29v-62.92h6.29v12.58h6.29v-6.29h6.29v-6.29h-12.58v-6.29h25.17v6.29h6.29v44.04h25.17v6.29Z"/>
        <path class="cls-3" d="M481.06,392.14h6.29v6.29h-6.29v6.29h-31.46v6.29h31.46v6.29h6.29v6.29h-6.29v6.29h-31.46v6.29h31.46v6.29h6.29v12.58h-6.29v6.29h-62.92v-6.29h-6.29v-62.92h6.29v12.58h6.29v-6.29h6.29v-6.29h-12.58v-6.29h62.92v6.29Z"/>
      </g>
    </g>
  </g>
</svg>