<?xml version="1.0" encoding="UTF-8"?>
<svg id="Layer_1" data-name="Layer 1" xmlns="http://www.w3.org/2000/svg" viewBox="0 0 584.56 792.97">
  <defs>
    <style>
      .cls-1 {
        fill: #00c0f3;
      }

      .cls-1, .cls-2 {
        stroke: #00c0f3;
        stroke-width: 8.56px;
      }

      .cls-1, .cls-2, .cls-3, .cls-4 {
        stroke-miterlimit: 10;
      }

      .cls-2, .cls-5, .cls-4 {
        fill: #fff;
      }

      .cls-5 {
        stroke-width: 0px;
      }

      .cls-3 {
        fill: #6d6e71;
        stroke-width: 4.91px;
      }

      .cls-3, .cls-4 {
        stroke: #6d6e71;
      }

      .cls-4 {
        stroke-width: 4.28px;
      }
    </style>
  </defs>
  <g>
    <rect class="cls-2" x="4.28" y="122.88" width="576" height="395.99"/>
    <rect class="cls-1" x="4.28" y="4.28" width="576" height="118.6"/>
    <g>
      <path class="cls-5" d="M93.85,45.64v11.12h-22.24v11.15h16.68v11.12h-16.68v22.27h-11.15v-55.66h33.39Z"/>
      <path class="cls-5" d="M98.86,45.64h11.15v55.66h-11.15v-55.66Z"/>
      <path class="cls-5" d="M149.28,76.06v-30.42h11.15v55.66l-33.39-30.46v30.46h-11.15v-55.66l33.39,30.42Z"/>
      <path class="cls-5" d="M181.2,93.36l-3.59,7.94h-11.88l23.83-53.07,1.17-2.59,1.21,2.62,23.86,53.04h-11.91l-3.56-7.98-.17-.38h-18.78l-.17.41ZM195.11,81.83l-4.35-9.74-4.38,9.74h8.74Z"/>
      <path class="cls-5" d="M229.17,45.64v44.51h22.24v11.15h-33.39v-55.66h11.15Z"/>
      <path class="cls-5" d="M286.31,77.58c-1.67-.58-3.44-1.48-5.32-2.73-1.88-1.24-3.56-2.88-5.06-4.92-1.5-2.04-2.24-4.58-2.24-7.61,0-4.58,1.63-8.51,4.9-11.78,3.27-3.27,7.21-4.9,11.81-4.9s8.51,1.63,11.77,4.9c3.27,3.27,4.9,7.19,4.9,11.78h-11.12c0-1.52-.55-2.83-1.64-3.92-1.09-1.09-2.4-1.64-3.92-1.64s-2.85.55-3.94,1.64-1.62,2.4-1.62,3.92c0,1.98.8,3.48,2.4,4.51,1.6,1.02,2.81,1.65,3.64,1.88.39.14,1.46.46,3.19.97,1.74.51,3.57,1.35,5.49,2.52,1.92,1.17,3.65,2.76,5.2,4.75,1.54,1.99,2.31,4.54,2.31,7.65,0,4.6-1.63,8.54-4.9,11.81-3.27,3.27-7.19,4.9-11.77,4.9s-8.54-1.63-11.81-4.9-4.9-7.21-4.9-11.81h11.15c0,1.54.54,2.85,1.62,3.94s2.39,1.62,3.94,1.62,2.83-.54,3.92-1.62c1.09-1.08,1.64-2.39,1.64-3.94,0-2.35-.94-3.87-2.81-4.56-1.88-.69-3.15-1.16-3.82-1.42-.35-.12-1.35-.46-3.02-1.04Z"/>
      <path class="cls-5" d="M350.27,47.83c3.37,1.46,6.34,3.45,8.89,5.96l-7.87,7.87c-3.32-3.27-7.25-4.9-11.81-4.9s-8.54,1.64-11.79,4.92c-3.26,3.28-4.89,7.21-4.89,11.79s1.63,8.53,4.89,11.79c3.26,3.26,7.19,4.89,11.79,4.89s8.54-1.63,11.81-4.9l7.87,7.87c-2.55,2.53-5.52,4.53-8.89,5.99-3.37,1.46-6.97,2.19-10.79,2.19-7.67,0-14.22-2.72-19.67-8.17-5.44-5.44-8.17-12-8.17-19.67s2.72-14.19,8.17-19.65c5.44-5.46,12-8.18,19.67-8.18,3.82,0,7.42.73,10.79,2.19Z"/>
      <path class="cls-5" d="M410.62,53.82c5.46,5.46,8.18,12,8.18,19.65s-2.73,14.22-8.18,19.67-12,8.17-19.65,8.17-14.22-2.72-19.67-8.17c-5.45-5.44-8.17-12-8.17-19.67s2.72-14.19,8.17-19.65c5.44-5.46,12-8.18,19.67-8.18s14.19,2.73,19.65,8.18ZM379.18,61.68c-3.26,3.28-4.89,7.21-4.89,11.79s1.63,8.53,4.89,11.79c3.26,3.26,7.19,4.89,11.79,4.89s8.51-1.63,11.79-4.89,4.92-7.19,4.92-11.79-1.64-8.51-4.92-11.79-7.21-4.92-11.79-4.92-8.54,1.64-11.79,4.92Z"/>
      <path class="cls-5" d="M422.06,84.59v-38.95h19.48c5.36,0,9.96,1.91,13.78,5.73,3.82,3.82,5.73,8.4,5.73,13.74,0,4.14-1.18,7.87-3.54,11.17-2.36,3.3-5.37,5.65-9.03,7.03l12.57,17.99h-13.61l-14.23-20.37v20.37h-11.15v-16.71ZM441.54,73.47c2.3,0,4.27-.82,5.9-2.45,1.63-1.63,2.45-3.6,2.45-5.9s-.82-4.24-2.45-5.89-3.6-2.47-5.9-2.47h-8.32v16.71h8.32Z"/>
      <path class="cls-5" d="M499.53,45.64v11.12h-22.24v11.15h16.68v11.12h-16.68v11.12h22.24v11.15h-33.39v-55.66h33.39Z"/>
      <path class="cls-5" d="M517.07,56.76v11.15h-11.15v-11.15h11.15ZM517.07,90.15v11.15h-11.15v-11.15h11.15Z"/>
    </g>
  </g>
  <g>
    <rect class="cls-4" x="4.28" y="592.67" width="288.24" height="198.16"/>
    <rect class="cls-3" x="4.28" y="533.33" width="288.24" height="95.11"/>
    <g>
      <path class="cls-5" d="M45.82,553.92v11.15h8.35v-11.15h5.58v27.87h-5.58v-11.15h-8.35v11.15h-5.58v-27.87h5.58Z"/>
      <path class="cls-5" d="M62.29,553.92h5.58v27.87h-5.58v-27.87Z"/>
      <path class="cls-5" d="M90.15,555.02c1.69.73,3.17,1.73,4.45,2.98l-3.94,3.94c-1.66-1.64-3.63-2.46-5.91-2.46s-4.27.82-5.9,2.46c-1.63,1.64-2.45,3.61-2.45,5.9s.82,4.27,2.45,5.9,3.6,2.45,5.9,2.45c1.81,0,3.43-.52,4.86-1.56,1.43-1.04,2.44-2.38,3.03-4h-7.88v-5.57h13.66c.18.88.28,1.8.28,2.78,0,3.84-1.37,7.12-4.1,9.85s-6.01,4.09-9.84,4.09-7.12-1.36-9.85-4.09-4.09-6.01-4.09-9.85,1.36-7.11,4.09-9.84,6.01-4.1,9.85-4.1c1.91,0,3.71.37,5.4,1.1Z"/>
      <path class="cls-5" d="M105.88,553.92v11.15h8.35v-11.15h5.58v27.87h-5.58v-11.15h-8.35v11.15h-5.58v-27.87h5.58Z"/>
      <path class="cls-5" d="M137.31,569.91c-.84-.29-1.72-.74-2.66-1.37-.94-.62-1.78-1.44-2.53-2.46-.75-1.02-1.12-2.29-1.12-3.81,0-2.29.82-4.26,2.46-5.9,1.64-1.64,3.61-2.45,5.91-2.45s4.26.82,5.9,2.45c1.64,1.64,2.46,3.6,2.46,5.9h-5.57c0-.76-.27-1.42-.82-1.96s-1.2-.82-1.96-.82-1.43.27-1.97.82c-.54.55-.81,1.2-.81,1.96,0,.99.4,1.74,1.2,2.26.8.51,1.41.83,1.82.94.2.07.73.23,1.6.48s1.79.67,2.75,1.26c.96.59,1.83,1.38,2.6,2.38.77,1,1.16,2.27,1.16,3.83,0,2.3-.82,4.28-2.46,5.91s-3.6,2.46-5.9,2.46-4.28-.82-5.91-2.46-2.46-3.61-2.46-5.91h5.58c0,.77.27,1.43.81,1.97s1.2.81,1.97.81,1.42-.27,1.96-.81c.55-.54.82-1.2.82-1.97,0-1.18-.47-1.94-1.41-2.28s-1.58-.58-1.91-.71c-.17-.06-.68-.23-1.51-.52Z"/>
      <path class="cls-5" d="M169.32,555.02c1.69.73,3.17,1.73,4.45,2.98l-3.94,3.94c-1.66-1.64-3.63-2.46-5.91-2.46s-4.27.82-5.9,2.46c-1.63,1.64-2.45,3.61-2.45,5.9s.82,4.27,2.45,5.9,3.6,2.45,5.9,2.45,4.28-.82,5.91-2.46l3.94,3.94c-1.28,1.27-2.76,2.27-4.45,3-1.69.73-3.49,1.1-5.4,1.1-3.84,0-7.12-1.36-9.85-4.09s-4.09-6.01-4.09-9.85,1.36-7.11,4.09-9.84,6.01-4.1,9.85-4.1c1.91,0,3.71.37,5.4,1.1Z"/>
      <path class="cls-5" d="M199.52,558.02c2.73,2.73,4.1,6.01,4.1,9.84s-1.37,7.12-4.1,9.85-6.01,4.09-9.84,4.09-7.12-1.36-9.85-4.09-4.09-6.01-4.09-9.85,1.36-7.11,4.09-9.84,6.01-4.1,9.85-4.1,7.11,1.37,9.84,4.1ZM183.78,561.95c-1.63,1.64-2.45,3.61-2.45,5.9s.82,4.27,2.45,5.9,3.6,2.45,5.9,2.45,4.26-.82,5.9-2.45c1.64-1.63,2.46-3.6,2.46-5.9s-.82-4.26-2.46-5.9c-1.64-1.64-3.61-2.46-5.9-2.46s-4.27.82-5.9,2.46Z"/>
      <path class="cls-5" d="M205.24,573.42v-19.5h9.75c2.68,0,4.98.96,6.9,2.87s2.87,4.21,2.87,6.88c0,2.08-.59,3.94-1.77,5.59-1.18,1.65-2.69,2.83-4.52,3.52l6.29,9.01h-6.81l-7.12-10.2v10.2h-5.58v-8.37ZM214.99,567.85c1.15,0,2.14-.41,2.96-1.23s1.23-1.8,1.23-2.96-.41-2.12-1.23-2.95-1.8-1.24-2.96-1.24h-4.17v8.37h4.17Z"/>
      <path class="cls-5" d="M244.01,553.92v5.57h-11.13v5.58h8.35v5.57h-8.35v5.57h11.13v5.58h-16.72v-27.87h16.72Z"/>
      <path class="cls-5" d="M64.01,592.41c2.73,2.73,4.1,6.01,4.1,9.84s-1.37,7.12-4.1,9.85-6.01,4.09-9.84,4.09-7.12-1.36-9.85-4.09-4.09-6.01-4.09-9.85,1.36-7.11,4.09-9.84,6.01-4.1,9.85-4.1,7.11,1.37,9.84,4.1ZM48.27,596.34c-1.63,1.64-2.45,3.61-2.45,5.9s.82,4.27,2.45,5.9,3.6,2.45,5.9,2.45,4.26-.82,5.9-2.45c1.64-1.63,2.46-3.6,2.46-5.9s-.82-4.26-2.46-5.9c-1.64-1.64-3.61-2.46-5.9-2.46s-4.27.82-5.9,2.46Z"/>
      <path class="cls-5" d="M86.44,588.31v5.57h-11.13v5.58h8.35v5.57h-8.35v11.15h-5.58v-27.87h16.72Z"/>
      <path class="cls-5" d="M110.13,588.31h6.97v5.57h-6.97v22.3h-5.58v-22.3h-6.97v-5.57h12.55Z"/>
      <path class="cls-5" d="M125.44,588.31v11.15h8.35v-11.15h5.58v27.87h-5.58v-11.15h-8.35v11.15h-5.58v-27.87h5.58Z"/>
      <path class="cls-5" d="M158.63,588.31v5.57h-11.13v5.58h8.35v5.57h-8.35v5.57h11.13v5.58h-16.72v-27.87h16.72Z"/>
      <path class="cls-5" d="M185.19,592.41c2.73,2.73,4.1,6.01,4.1,9.84s-1.37,7.12-4.1,9.85-6.01,4.09-9.84,4.09h-5.58v-27.87h5.58c3.83,0,7.11,1.37,9.84,4.1ZM181.25,608.15c1.64-1.63,2.46-3.6,2.46-5.9s-.82-4.26-2.46-5.9c-1.64-1.64-3.6-2.46-5.9-2.46v16.72c2.29,0,4.26-.82,5.9-2.45Z"/>
      <path class="cls-5" d="M198.52,612.2l-1.8,3.98h-5.95l11.93-26.57.59-1.3.6,1.31,11.95,26.55h-5.96l-1.78-3.99-.09-.19h-9.41l-.09.21ZM205.48,606.43l-2.18-4.88-2.2,4.88h4.37Z"/>
      <path class="cls-5" d="M223.01,588.31l4.81,8.83,4.81-8.83h6.34l-8.37,15.37v12.5h-5.57v-12.5l-8.35-15.37h6.33Z"/>
      <path class="cls-5" d="M246.58,593.88v5.58h-5.58v-5.58h5.58ZM246.58,610.6v5.58h-5.58v-5.58h5.58Z"/>
    </g>
    <rect class="cls-4" x="292.04" y="592.67" width="288.24" height="198.16"/>
    <rect class="cls-3" x="292.04" y="533.33" width="288.24" height="95.11"/>
    <g>
      <path class="cls-5" d="M335.35,577.81l-1.8,3.98h-5.95l11.93-26.57.59-1.3.61,1.31,11.95,26.55h-5.96l-1.78-3.99-.09-.19h-9.41l-.09.21ZM342.32,572.04l-2.18-4.88-2.2,4.88h4.37Z"/>
      <path class="cls-5" d="M359.35,553.92v22.28h11.13v5.58h-16.72v-27.87h5.58Z"/>
      <path class="cls-5" d="M378.57,553.92v22.28h11.13v5.58h-16.72v-27.87h5.58Z"/>
      <path class="cls-5" d="M392.21,568.54h13.93v4.88h-13.93v-4.88Z"/>
      <path class="cls-5" d="M421.8,553.92h6.97v5.57h-6.97v22.3h-5.58v-22.3h-6.97v-5.57h12.55Z"/>
      <path class="cls-5" d="M431.53,553.92h5.58v27.87h-5.58v-27.87Z"/>
      <path class="cls-5" d="M453.64,572.04l13.59-18.12v27.87h-5.58v-11.15l-8,10.7-8-10.7v11.15h-5.58v-27.87l13.59,18.12Z"/>
      <path class="cls-5" d="M486.48,553.92v5.57h-11.13v5.58h8.35v5.57h-8.35v5.57h11.13v5.58h-16.72v-27.87h16.72Z"/>
      <path class="cls-5" d="M333.59,588.31v11.15h8.35v-11.15h5.58v27.87h-5.58v-11.15h-8.35v11.15h-5.58v-27.87h5.58Z"/>
      <path class="cls-5" d="M350.05,588.31h5.58v27.87h-5.58v-27.87Z"/>
      <path class="cls-5" d="M377.91,589.41c1.69.73,3.17,1.73,4.45,2.98l-3.94,3.94c-1.66-1.64-3.63-2.46-5.91-2.46s-4.27.82-5.9,2.46c-1.63,1.64-2.45,3.61-2.45,5.9s.82,4.27,2.45,5.9,3.6,2.45,5.9,2.45c1.81,0,3.43-.52,4.86-1.56,1.43-1.04,2.44-2.38,3.03-4h-7.88v-5.57h13.66c.18.88.28,1.8.28,2.78,0,3.84-1.37,7.12-4.1,9.85s-6.01,4.09-9.84,4.09-7.12-1.36-9.85-4.09-4.09-6.01-4.09-9.85,1.36-7.11,4.09-9.84,6.01-4.1,9.85-4.1c1.91,0,3.71.37,5.4,1.1Z"/>
      <path class="cls-5" d="M393.64,588.31v11.15h8.35v-11.15h5.58v27.87h-5.58v-11.15h-8.35v11.15h-5.58v-27.87h5.58Z"/>
      <path class="cls-5" d="M425.07,604.3c-.84-.29-1.72-.74-2.66-1.37-.94-.62-1.78-1.44-2.53-2.46-.75-1.02-1.12-2.29-1.12-3.81,0-2.29.82-4.26,2.46-5.9,1.64-1.64,3.61-2.45,5.91-2.45s4.26.82,5.9,2.45c1.64,1.64,2.46,3.6,2.46,5.9h-5.57c0-.76-.27-1.42-.82-1.96s-1.2-.82-1.96-.82-1.43.27-1.97.82c-.54.55-.81,1.2-.81,1.96,0,.99.4,1.74,1.2,2.26.8.51,1.41.83,1.82.94.2.07.73.23,1.6.48s1.79.67,2.75,1.26c.96.59,1.83,1.38,2.6,2.38.77,1,1.16,2.27,1.16,3.83,0,2.3-.82,4.28-2.46,5.91s-3.6,2.46-5.9,2.46-4.28-.82-5.91-2.46-2.46-3.61-2.46-5.91h5.58c0,.77.27,1.43.81,1.97s1.2.81,1.97.81,1.42-.27,1.96-.81c.55-.54.82-1.2.82-1.97,0-1.18-.47-1.94-1.41-2.28s-1.58-.58-1.91-.71c-.17-.06-.68-.23-1.51-.52Z"/>
      <path class="cls-5" d="M457.09,589.41c1.69.73,3.17,1.73,4.45,2.98l-3.94,3.94c-1.66-1.64-3.63-2.46-5.91-2.46s-4.27.82-5.9,2.46c-1.63,1.64-2.45,3.61-2.45,5.9s.82,4.27,2.45,5.9,3.6,2.45,5.9,2.45,4.28-.82,5.91-2.46l3.94,3.94c-1.28,1.27-2.76,2.27-4.45,3-1.69.73-3.49,1.1-5.4,1.1-3.84,0-7.12-1.36-9.85-4.09s-4.09-6.01-4.09-9.85,1.36-7.11,4.09-9.84,6.01-4.1,9.85-4.1c1.91,0,3.71.37,5.4,1.1Z"/>
      <path class="cls-5" d="M487.29,592.41c2.73,2.73,4.1,6.01,4.1,9.84s-1.37,7.12-4.1,9.85-6.01,4.09-9.84,4.09-7.12-1.36-9.85-4.09-4.09-6.01-4.09-9.85,1.36-7.11,4.09-9.84,6.01-4.1,9.85-4.1,7.11,1.37,9.84,4.1ZM471.55,596.34c-1.63,1.64-2.45,3.61-2.45,5.9s.82,4.27,2.45,5.9,3.6,2.45,5.9,2.45,4.26-.82,5.9-2.45c1.64-1.63,2.46-3.6,2.46-5.9s-.82-4.26-2.46-5.9c-1.64-1.64-3.61-2.46-5.9-2.46s-4.27.82-5.9,2.46Z"/>
      <path class="cls-5" d="M493,607.81v-19.5h9.75c2.68,0,4.98.96,6.9,2.87s2.87,4.21,2.87,6.88c0,2.07-.59,3.94-1.77,5.59-1.18,1.65-2.69,2.83-4.52,3.52l6.29,9.01h-6.81l-7.12-10.2v10.2h-5.58v-8.37ZM502.75,602.25c1.15,0,2.14-.41,2.96-1.23s1.23-1.8,1.23-2.96-.41-2.12-1.23-2.95-1.8-1.24-2.96-1.24h-4.17v8.37h4.17Z"/>
      <path class="cls-5" d="M531.77,588.31v5.57h-11.13v5.58h8.35v5.57h-8.35v5.57h11.13v5.58h-16.72v-27.87h16.72Z"/>
      <path class="cls-5" d="M540.55,593.88v5.58h-5.58v-5.58h5.58ZM540.55,610.6v5.58h-5.58v-5.58h5.58Z"/>
    </g>
  </g>
</svg>