<?xml version="1.0" encoding="UTF-8"?>
<svg id="Layer_1" data-name="Layer 1" xmlns="http://www.w3.org/2000/svg" version="1.1" viewBox="0 0 201.4 468.22">
  <defs>
    <style>
      .cls-1, .cls-2 {
        stroke: #00c0f3;
      }

      .cls-1, .cls-2, .cls-3, .cls-4 {
        stroke-miterlimit: 10;
        stroke-width: 2.95px;
      }

      .cls-1, .cls-5, .cls-4 {
        fill: #fff;
      }

      .cls-2 {
        fill: #00c0f3;
      }

      .cls-3 {
        fill: #bb2332;
      }

      .cls-3, .cls-4 {
        stroke: #bb2332;
      }

      .cls-5 {
        stroke-width: 0px;
      }
    </style>
  </defs>
  <g>
    <rect class="cls-4" x="1.47" y="122.09" width="198.45" height="136.43"/>
    <rect class="cls-3" x="1.47" y="61.2" width="198.45" height="60.9"/>
    <g>
      <path class="cls-5" d="M19.21,108.91v-28.51h-6.72v-7.21h21.74v7.21h-6.72v28.51h-8.31Z"/>
      <path class="cls-5" d="M33.64,108.91v-8.26h7.96v8.26h-7.96Z"/>
      <path class="cls-5" d="M48.22,108.91v-13.83l-8.85-21.89h8.75l4.23,12.69h.1l4.48-12.69h8.65l-8.95,21.89v13.83h-8.41Z"/>
      <path class="cls-5" d="M61.26,108.91v-8.26h7.96v8.26h-7.96Z"/>
      <path class="cls-5" d="M73.84,108.91v-35.72h8.31v28.51h11.34v7.21h-19.65Z"/>
      <path class="cls-5" d="M99.45,108.91v-8.26h7.96v8.26h-7.96Z"/>
      <path class="cls-5" d="M113,108.91v-35.72h20.05v7.21h-11.74v6.67h8.8v7.02h-8.8v7.61h12.19v7.21h-20.5Z"/>
      <path class="cls-5" d="M139.09,108.91v-8.26h7.96v8.26h-7.96Z"/>
      <path class="cls-5" d="M167.81,108.91l-3.88-13.38h-2.93v13.38h-8.31v-35.72h10.95c7.81,0,11.89,2.94,11.89,10.35,0,4.33-1.69,7.06-4.28,8.66l5.62,16.72h-9.05ZM163.08,88.81c2.14,0,3.93-.85,3.93-4.43,0-4.38-2.29-4.23-3.73-4.23h-2.29v8.66h2.09Z"/>
      <path class="cls-5" d="M180.94,108.91v-8.26h7.96v8.26h-7.96Z"/>
    </g>
  </g>
  <g>
    <rect class="cls-1" x="1.47" y="330.31" width="198.45" height="136.43"/>
    <rect class="cls-2" x="1.47" y="269.42" width="198.45" height="60.9"/>
    <g>
      <path class="cls-5" d="M42.69,320.07v-14.67h-7.16v14.67h-8.36v-35.72h8.36v13.68h7.16v-13.68h8.31v35.72h-8.31Z"/>
      <path class="cls-5" d="M72.29,284.35h8.26v23.73c0,8.16-3.68,12.39-12.09,12.39s-11.69-4.23-11.69-12.39v-23.73h8.36v24.87c0,2.98,1.19,4.33,3.48,4.33s3.68-1.34,3.68-4.33v-24.87Z"/>
      <path class="cls-5" d="M109.3,320.07v-22.19h-.1l-4.78,22.19h-5.77l-4.88-22.19h-.1v22.19h-7.36v-35.72h10.6l4.53,20.64h.1l4.83-20.64h10.3v35.72h-7.36Z"/>
      <path class="cls-5" d="M138.06,320.07l-1.34-7.71h-6.76l-1.24,7.71h-8.46l7.66-35.72h10.84l7.86,35.72h-8.56ZM131.09,305.29h4.43l-2.19-12.83h-.15l-2.09,12.83Z"/>
      <path class="cls-5" d="M166.71,320.07l-9.05-19.75h-.1v19.75h-7.36v-35.72h8.66l7.81,17.71h.1v-17.71h7.46v35.72h-7.51Z"/>
    </g>
  </g>
  <g>
    <path class="cls-5" d="M16.42,23.87c-1.25-.43-2.57-1.11-3.97-2.04-1.4-.93-2.66-2.15-3.78-3.68-1.12-1.52-1.68-3.42-1.68-5.69,0-3.42,1.22-6.36,3.66-8.8,2.44-2.44,5.38-3.66,8.82-3.66s6.36,1.22,8.8,3.66c2.44,2.44,3.66,5.38,3.66,8.8h-8.31c0-1.14-.41-2.11-1.23-2.93-.82-.82-1.79-1.23-2.93-1.23s-2.13.41-2.94,1.23c-.81.82-1.21,1.79-1.21,2.93,0,1.48.6,2.6,1.79,3.37,1.2.77,2.1,1.23,2.72,1.41.29.1,1.09.34,2.39.72s2.67,1.01,4.1,1.88c1.44.88,2.73,2.06,3.88,3.55,1.15,1.49,1.73,3.39,1.73,5.72,0,3.44-1.22,6.38-3.66,8.82-2.44,2.44-5.38,3.66-8.8,3.66s-6.38-1.22-8.82-3.66c-2.44-2.44-3.66-5.38-3.66-8.82h8.33c0,1.15.4,2.13,1.21,2.94s1.79,1.21,2.94,1.21,2.11-.4,2.93-1.21c.82-.81,1.23-1.79,1.23-2.94,0-1.75-.7-2.89-2.1-3.41-1.4-.52-2.35-.87-2.85-1.06-.26-.09-1.01-.34-2.26-.77Z"/>
    <path class="cls-5" d="M64.2,1.64c2.52,1.09,4.74,2.58,6.64,4.45l-5.88,5.88c-2.48-2.44-5.42-3.66-8.82-3.66s-6.38,1.23-8.81,3.68c-2.43,2.45-3.65,5.39-3.65,8.81s1.22,6.38,3.65,8.81c2.43,2.43,5.37,3.65,8.81,3.65s6.38-1.22,8.82-3.66l5.88,5.88c-1.91,1.89-4.12,3.38-6.64,4.48-2.52,1.09-5.21,1.64-8.06,1.64-5.73,0-10.63-2.03-14.7-6.1-4.07-4.07-6.1-8.97-6.1-14.69s2.03-10.6,6.1-14.68S50.41,0,56.14,0c2.86,0,5.54.55,8.06,1.64Z"/>
    <path class="cls-5" d="M109.28,6.12c4.08,4.08,6.12,8.97,6.12,14.68s-2.04,10.63-6.12,14.69c-4.08,4.07-8.97,6.1-14.68,6.1s-10.63-2.03-14.69-6.1c-4.07-4.07-6.1-8.97-6.1-14.69s2.03-10.6,6.1-14.68,8.97-6.12,14.69-6.12,10.6,2.04,14.68,6.12ZM85.79,11.99c-2.43,2.45-3.65,5.39-3.65,8.81s1.22,6.38,3.65,8.81,5.37,3.65,8.81,3.65,6.36-1.22,8.81-3.65c2.45-2.43,3.68-5.37,3.68-8.81s-1.23-6.36-3.68-8.81c-2.45-2.45-5.39-3.68-8.81-3.68s-6.38,1.23-8.81,3.68Z"/>
    <path class="cls-5" d="M117.82,29.11V0h14.55c4.01,0,7.44,1.43,10.29,4.28s4.28,6.28,4.28,10.27c0,3.1-.88,5.88-2.64,8.35-1.76,2.47-4.01,4.22-6.75,5.25l9.39,13.44h-10.17l-10.63-15.22v15.22h-8.33v-12.49ZM132.37,20.8c1.72,0,3.19-.61,4.41-1.83s1.83-2.69,1.83-4.41-.61-3.17-1.83-4.4-2.69-1.84-4.41-1.84h-6.22v12.49h6.22Z"/>
    <path class="cls-5" d="M175.69,0v8.31h-16.62v8.33h12.46v8.31h-12.46v8.31h16.62v8.33h-24.95V0h24.95Z"/>
    <path class="cls-5" d="M188.79,8.31v8.33h-8.33v-8.33h8.33ZM188.79,33.26v8.33h-8.33v-8.33h8.33Z"/>
  </g>
</svg>