<svg width="4800" height="4000" xmlns="http://www.w3.org/2000/svg">
  <rect width="4800" height="4000" fill="rgb(0, 0, 0)" />
  <rect x="0" y="0" width="4800" height="4000" fill="none" stroke="rgb(252, 216, 68)" stroke-width="36" />
  <line x1="0" y1="2000" x2="4800" y2="2000" stroke="rgb(255, 255, 255)" stroke-width="24" />
  <!-- Vertical grid lines -->
  <line x1="480" y1="0" x2="480" y2="4000" stroke="rgb(252, 216, 68)" stroke-width="6" />
  <line x1="960" y1="0" x2="960" y2="4000" stroke="rgb(252, 216, 68)" stroke-width="6" />
  <line x1="1440" y1="0" x2="1440" y2="4000" stroke="rgb(252, 216, 68)" stroke-width="6" />
  <line x1="1920" y1="0" x2="1920" y2="4000" stroke="rgb(252, 216, 68)" stroke-width="6" />
  <line x1="2400" y1="0" x2="2400" y2="4000" stroke="rgb(252, 216, 68)" stroke-width="6" />
  <line x1="2880" y1="0" x2="2880" y2="4000" stroke="rgb(252, 216, 68)" stroke-width="6" />
  <line x1="3360" y1="0" x2="3360" y2="4000" stroke="rgb(252, 216, 68)" stroke-width="6" />
  <line x1="3840" y1="0" x2="3840" y2="4000" stroke="rgb(252, 216, 68)" stroke-width="6" />
  <line x1="4320" y1="0" x2="4320" y2="4000" stroke="rgb(252, 216, 68)" stroke-width="6" />
  <!-- Horizontal grid lines -->
  <line x1="0" y1="250" x2="4800" y2="250" stroke="rgb(252, 216, 68)" stroke-width="6" />
  <line x1="0" y1="500" x2="4800" y2="500" stroke="rgb(252, 216, 68)" stroke-width="6" />
  <line x1="0" y1="750" x2="4800" y2="750" stroke="rgb(252, 216, 68)" stroke-width="6" />
  <line x1="0" y1="1000" x2="4800" y2="1000" stroke="rgb(252, 216, 68)" stroke-width="6" />
  <line x1="0" y1="1250" x2="4800" y2="1250" stroke="rgb(252, 216, 68)" stroke-width="6" />
  <line x1="0" y1="1500" x2="4800" y2="1500" stroke="rgb(252, 216, 68)" stroke-width="6" />
  <line x1="0" y1="1750" x2="4800" y2="1750" stroke="rgb(252, 216, 68)" stroke-width="6" />
  <line x1="0" y1="2250" x2="4800" y2="2250" stroke="rgb(252, 216, 68)" stroke-width="6" />
  <line x1="0" y1="2500" x2="4800" y2="2500" stroke="rgb(252, 216, 68)" stroke-width="6" />
  <line x1="0" y1="2750" x2="4800" y2="2750" stroke="rgb(252, 216, 68)" stroke-width="6" />
  <line x1="0" y1="3000" x2="4800" y2="3000" stroke="rgb(252, 216, 68)" stroke-width="6" />
  <line x1="0" y1="3250" x2="4800" y2="3250" stroke="rgb(252, 216, 68)" stroke-width="6" />
  <line x1="0" y1="3500" x2="4800" y2="3500" stroke="rgb(252, 216, 68)" stroke-width="6" />
  <line x1="0" y1="3750" x2="4800" y2="3750" stroke="rgb(252, 216, 68)" stroke-width="6" />
</svg>