<?xml version="1.0" encoding="UTF-8"?>
<svg id="Layer_1" data-name="Layer 1" xmlns="http://www.w3.org/2000/svg" viewBox="0 0 584.56 523.14">
  <defs>
    <style>
      .cls-1 {
        fill: #00c0f3;
      }

      .cls-1, .cls-2 {
        stroke: #00c0f3;
        stroke-miterlimit: 10;
        stroke-width: 8.56px;
      }

      .cls-2, .cls-3 {
        fill: #fff;
      }

      .cls-3 {
        stroke-width: 0px;
      }
    </style>
  </defs>
  <rect class="cls-2" x="4.28" y="122.88" width="576" height="395.99"/>
  <rect class="cls-1" x="4.28" y="4.28" width="576" height="118.6"/>
  <g>
    <path class="cls-3" d="M93.6,45.44v11.12h-22.24v11.15h16.68v11.12h-16.68v22.27h-11.15v-55.66h33.39Z"/>
    <path class="cls-3" d="M98.61,45.44h11.15v55.66h-11.15v-55.66Z"/>
    <path class="cls-3" d="M149.03,75.86v-30.42h11.15v55.66l-33.39-30.46v30.46h-11.15v-55.66l33.39,30.42Z"/>
    <path class="cls-3" d="M180.95,93.16l-3.59,7.94h-11.88l23.83-53.07,1.17-2.59,1.21,2.62,23.86,53.04h-11.91l-3.56-7.98-.17-.38h-18.78l-.17.41ZM194.87,81.63l-4.35-9.74-4.38,9.74h8.74Z"/>
    <path class="cls-3" d="M228.92,45.44v44.51h22.24v11.15h-33.39v-55.66h11.15Z"/>
    <path class="cls-3" d="M286.07,77.38c-1.67-.58-3.44-1.48-5.32-2.73-1.88-1.24-3.56-2.88-5.06-4.92-1.5-2.04-2.24-4.58-2.24-7.61,0-4.58,1.63-8.51,4.9-11.78,3.27-3.27,7.21-4.9,11.81-4.9s8.51,1.63,11.77,4.9c3.27,3.27,4.9,7.19,4.9,11.78h-11.12c0-1.52-.55-2.83-1.64-3.92-1.09-1.09-2.4-1.64-3.92-1.64s-2.85.55-3.94,1.64-1.62,2.4-1.62,3.92c0,1.98.8,3.48,2.4,4.51,1.6,1.02,2.81,1.65,3.64,1.88.39.14,1.46.46,3.19.97,1.74.51,3.57,1.35,5.49,2.52,1.92,1.17,3.65,2.76,5.2,4.75,1.54,1.99,2.31,4.54,2.31,7.65,0,4.6-1.63,8.54-4.9,11.81-3.27,3.27-7.19,4.9-11.77,4.9s-8.54-1.63-11.81-4.9-4.9-7.21-4.9-11.81h11.15c0,1.54.54,2.85,1.62,3.94s2.39,1.62,3.94,1.62,2.83-.54,3.92-1.62c1.09-1.08,1.64-2.39,1.64-3.94,0-2.35-.94-3.87-2.81-4.56-1.88-.69-3.15-1.16-3.82-1.42-.35-.12-1.35-.46-3.02-1.04Z"/>
    <path class="cls-3" d="M350.02,47.64c3.37,1.46,6.34,3.45,8.89,5.96l-7.87,7.87c-3.32-3.27-7.25-4.9-11.81-4.9s-8.54,1.64-11.79,4.92c-3.26,3.28-4.89,7.21-4.89,11.79s1.63,8.53,4.89,11.79c3.26,3.26,7.19,4.89,11.79,4.89s8.54-1.63,11.81-4.9l7.87,7.87c-2.56,2.53-5.52,4.53-8.89,5.99-3.37,1.46-6.97,2.19-10.79,2.19-7.67,0-14.22-2.72-19.67-8.17-5.45-5.44-8.17-12-8.17-19.67s2.72-14.19,8.17-19.65c5.44-5.46,12-8.18,19.67-8.18,3.82,0,7.42.73,10.79,2.19Z"/>
    <path class="cls-3" d="M410.38,53.63c5.46,5.46,8.18,12,8.18,19.65s-2.73,14.22-8.18,19.67-12,8.17-19.65,8.17-14.22-2.72-19.67-8.17c-5.44-5.44-8.17-12-8.17-19.67s2.72-14.19,8.17-19.65c5.44-5.46,12-8.18,19.67-8.18s14.19,2.73,19.65,8.18ZM378.94,61.48c-3.26,3.28-4.89,7.21-4.89,11.79s1.63,8.53,4.89,11.79c3.26,3.26,7.19,4.89,11.79,4.89s8.51-1.63,11.79-4.89,4.92-7.19,4.92-11.79-1.64-8.51-4.92-11.79-7.21-4.92-11.79-4.92-8.54,1.64-11.79,4.92Z"/>
    <path class="cls-3" d="M421.82,84.39v-38.95h19.48c5.36,0,9.96,1.91,13.78,5.73,3.82,3.82,5.73,8.4,5.73,13.74,0,4.14-1.18,7.87-3.54,11.17-2.36,3.3-5.37,5.65-9.03,7.03l12.57,17.99h-13.61l-14.23-20.37v20.37h-11.15v-16.71ZM441.29,73.27c2.3,0,4.27-.82,5.9-2.45,1.63-1.63,2.45-3.6,2.45-5.9s-.82-4.24-2.45-5.89-3.6-2.47-5.9-2.47h-8.32v16.71h8.32Z"/>
    <path class="cls-3" d="M499.28,45.44v11.12h-22.24v11.15h16.68v11.12h-16.68v11.12h22.24v11.15h-33.39v-55.66h33.39Z"/>
    <path class="cls-3" d="M516.83,56.56v11.15h-11.15v-11.15h11.15ZM516.83,89.95v11.15h-11.15v-11.15h11.15Z"/>
  </g>
</svg>